REM DIRINDEX 1\2,1\3,1\4,1\5
REM DIRNAME folder01,folder02,folder03,folder04,folder05
TITLE ""
FILE "1Q_t_0303-0312.mp3" MP3
  TRACK 01 AUDIO
    TITLE "3:cjc004_1810"
    INDEX 01 00:00:00
  TRACK 02 AUDIO
    TITLE "0:"
    INDEX 01 00:00:70
  TRACK 03 AUDIO
    TITLE "4:cjc004_1811"
    INDEX 01 00:01:28
  TRACK 04 AUDIO
    TITLE "0:"
    INDEX 01 00:02:34
  TRACK 05 AUDIO
    TITLE "5:cjc004_1812"
    INDEX 01 00:02:57
  TRACK 06 AUDIO
    TITLE "0:"
    INDEX 01 00:06:41
  TRACK 07 AUDIO
    TITLE "3:cjc004_1813"
    INDEX 01 00:07:21
  TRACK 08 AUDIO
    TITLE "0:"
    INDEX 01 00:08:21
  TRACK 09 AUDIO
    TITLE "4:cjc004_1814"
    INDEX 01 00:08:52
  TRACK 10 AUDIO
    TITLE "0:"
    INDEX 01 00:09:67
  TRACK 11 AUDIO
    TITLE "5:cjc004_1815"
    INDEX 01 00:10:19
  TRACK 12 AUDIO
    TITLE "0:"
    INDEX 01 00:15:27
  TRACK 13 AUDIO
    TITLE "3:cjc004_1816"
    INDEX 01 00:16:08
  TRACK 14 AUDIO
    TITLE "0:"
    INDEX 01 00:17:18
  TRACK 15 AUDIO
    TITLE "4:cjc004_1817"
    INDEX 01 00:17:47
  TRACK 16 AUDIO
    TITLE "0:"
    INDEX 01 00:19:13
  TRACK 17 AUDIO
    TITLE "5:cjc004_1818"
    INDEX 01 00:19:36
  TRACK 18 AUDIO
    TITLE "0:"
    INDEX 01 00:24:49
  TRACK 19 AUDIO
    TITLE "3:cjc004_1819"
    INDEX 01 00:25:29
  TRACK 20 AUDIO
    TITLE "0:"
    INDEX 01 00:26:38
  TRACK 21 AUDIO
    TITLE "4:cjc004_1820"
    INDEX 01 00:26:73
  TRACK 22 AUDIO
    TITLE "0:"
    INDEX 01 00:28:31
  TRACK 23 AUDIO
    TITLE "5:cjc004_1821"
    INDEX 01 00:28:59
  TRACK 24 AUDIO
    TITLE "0:"
    INDEX 01 00:33:01
  TRACK 25 AUDIO
    TITLE "3:cjc004_1822"
    INDEX 01 00:33:48
  TRACK 26 AUDIO
    TITLE "0:"
    INDEX 01 00:34:69
  TRACK 27 AUDIO
    TITLE "4:cjc004_1823"
    INDEX 01 00:35:25
  TRACK 28 AUDIO
    TITLE "0:"
    INDEX 01 00:36:33
  TRACK 29 AUDIO
    TITLE "5:cjc004_1824"
    INDEX 01 00:36:62
  TRACK 30 AUDIO
    TITLE "0:"
    INDEX 01 00:42:18
  TRACK 31 AUDIO
    TITLE "3:cjc004_1825"
    INDEX 01 00:42:70
  TRACK 32 AUDIO
    TITLE "0:"
    INDEX 01 00:44:20
  TRACK 33 AUDIO
    TITLE "4:cjc004_1826"
    INDEX 01 00:44:40
  TRACK 34 AUDIO
    TITLE "0:"
    INDEX 01 00:46:07
  TRACK 35 AUDIO
    TITLE "5:cjc004_1827"
    INDEX 01 00:46:37
  TRACK 36 AUDIO
    TITLE "0:"
    INDEX 01 00:51:46
  TRACK 37 AUDIO
    TITLE "3:cjc004_1828"
    INDEX 01 00:52:26
  TRACK 38 AUDIO
    TITLE "0:"
    INDEX 01 00:53:58
  TRACK 39 AUDIO
    TITLE "4:cjc004_1829"
    INDEX 01 00:54:11
  TRACK 40 AUDIO
    TITLE "0:"
    INDEX 01 00:55:34
  TRACK 41 AUDIO
    TITLE "5:cjc004_1830"
    INDEX 01 00:55:65
  TRACK 42 AUDIO
    TITLE "0:"
    INDEX 01 00:59:59
  TRACK 43 AUDIO
    TITLE "3:cjc004_1831"
    INDEX 01 01:00:41
  TRACK 44 AUDIO
    TITLE "0:"
    INDEX 01 01:01:58
  TRACK 45 AUDIO
    TITLE "4:cjc004_1832"
    INDEX 01 01:02:10
  TRACK 46 AUDIO
    TITLE "0:"
    INDEX 01 01:03:31
  TRACK 47 AUDIO
    TITLE "5:cjc004_1833"
    INDEX 01 01:03:55
  TRACK 48 AUDIO
    TITLE "0:"
    INDEX 01 01:08:52
  TRACK 49 AUDIO
    TITLE "3:cjc004_1834"
    INDEX 01 01:09:32
  TRACK 50 AUDIO
    TITLE "0:"
    INDEX 01 01:10:57
  TRACK 51 AUDIO
    TITLE "4:cjc004_1835"
    INDEX 01 01:11:09
  TRACK 52 AUDIO
    TITLE "0:"
    INDEX 01 01:12:58
  TRACK 53 AUDIO
    TITLE "5:cjc004_1836"
    INDEX 01 01:13:12
  TRACK 54 AUDIO
    TITLE "0:"
    INDEX 01 01:17:53
  TRACK 55 AUDIO
    TITLE "3:cjc004_1837"
    INDEX 01 01:18:29
  TRACK 56 AUDIO
    TITLE "0:"
    INDEX 01 01:19:44
  TRACK 57 AUDIO
    TITLE "4:cjc004_1838"
    INDEX 01 01:19:60
  TRACK 58 AUDIO
    TITLE "0:"
    INDEX 01 01:20:57
  TRACK 59 AUDIO
    TITLE "5:cjc004_1839"
    INDEX 01 01:21:08
  TRACK 60 AUDIO
    TITLE "0:"
    INDEX 01 01:25:04
